<?xml version="1.0" encoding="utf-8"?>
<!-- Generator: Adobe Illustrator 18.1.0, SVG Export Plug-In . SVG Version: 6.00 Build 0)  -->
<!DOCTYPE svg PUBLIC "-//W3C//DTD SVG 1.1//EN" "http://www.w3.org/Graphics/SVG/1.1/DTD/svg11.dtd">
<svg version="1.1" id="Layer_1" xmlns="http://www.w3.org/2000/svg" xmlns:xlink="http://www.w3.org/1999/xlink" x="0px" y="0px"
	 viewBox="0 0 288 145.4" enable-background="new 0 0 288 145.4" xml:space="preserve">
<path fill="#FFFFFF" d="M27.9,131c6.4,0.5,15.2,11.3,23.9,9.6h1c0,0.9-1.2,0.7-1.9,1c1.6,1.9,4.4,2.6,7.6,2.9
	C46.3,145.7,36.1,136.7,27.9,131 M82.3,142.4c-2.7-0.8-2.5,1.3-4.8,1H63.2c-3.7,0.7,7.1,1.8,8.6,1.9c20.6,1,46.4-8.8,52.6-21
	C114.3,134.2,99,139,82.3,142.4 M62.3,137.6C52.5,140.1,50.3,134.9,62.3,137.6 M9.7,97.5c-2.8-2.9-3.2-8.3-3.8-13.4
	C7.1,84.8,8.9,93.2,9.7,97.5 M109.1,22.9c-3.8-1-11.5-6.4-18.2-7.6C97.3,13.7,104,20.1,109.1,22.9 M30.7,20.1
	c2.2-1.8,5.6-3.3,8.6-4.8C37.6,16.5,29,23.1,24,27.7C19,32.5,28.8,21.6,30.7,20.1 M0.1,80.3c0.8,0.2,0.9-0.4,1-1
	C1,34.3,22,10.4,59.4,2.9C71,0.2,85.8,2.6,92.9,7.7c-8.2-2.9-17.8-4.5-29.6-3.8c-38.6,6.6-59.5,31-61.2,74.6
	C2.9,82.7,5.3,90.4,4,93.7c2.4,10,7.4,17.5,12.4,24.9c0.8,0.2,0.9-0.4,1-1c6.1,8.9,16.3,13.6,26.8,18.2c10.2,3.2,19.8,7,33.5,6.7
	c0.7-0.2,1.1-0.8,1-1.9c-2-0.6-6.3,1.2-6.7-1c7.5,0.8,14.7-3.8,20.1-1.9c-1.8,0.1-3.2,0.6-3.8,1.9c23.6-7.4,44.9-23.3,52.6-45.9
	c1.4-4.2,1.1-11.8,4.8-13.4c2.2-12.6,1.8-30.4-12.4-29.6c-0.5,2.6,2.8,6,0,7.6c0.7-2.9-1.6-2.8-1-5.7c-2.8,1,0.9,8.5-1.9,9.6
	c4.4,45.1-33.6,78.7-75.5,60.2C10.2,102.7,9,21.7,68,17.2c0.3-0.4,7.5-0.5,9.6,0c23.4,3.4,38.1,15.4,45.9,34.4c2.7-1.9-0.3-6,0-8.6
	c-3-4.7-5.7-9.6-8.6-14.3c3.8,3.8,7.2,8.1,9.6,13.4c1.7,2.7,2.5,6.4,4.8,8.6v-1c-1.5-7.7-6.2-12.3-8.6-19.1c1.4,0.2,1.6,1.6,2.9,1.9
	c-4-7.8-9.7-13.8-18.2-17.2C98.7,4.2,85.5,0.2,69.9,0C27.3-0.5-2.3,33.2,0.1,80.3 M52.4,81.9c-7.7-8.8-4.6-26.2,7.6-27.7
	C62.8,61.2,53.8,72.7,52.4,81.9 M87.8,25.5c-8.6-4.2-5.5,11.7-4.8,17.2c-5.3,2.3-10.4,4.9-16.3,6.7c-2.3-1.8-5-3.2-8.6-3.8
	c-4.3,1.4-7.2,4.2-11.5,5.7c-4.2-3.5-5.8-9.5-13.4-9.6c-2.3,13.4-3.1,53,9.6,55.4c6.4,1.2,11-5.7,17.2-7.6
	c-4.2-9.1,4.8-16.9,7.6-24.9c5.3-0.3,13.1-6.6,16.2-2.9c-4.2,5.6-9.6,10.1-18.2,11.5v8.6c8.7,1,12-3.3,18.2-4.8
	c1.6,10.9-7.8,34.6,3.8,37.3c2.5-12.2,1-28.3,2.9-41.1c3.8-2.9,9.3-4.1,13.4-6.7c-0.4-8.4-8.8-6.8-13.4-6.7c0.1-6.3,8-4.7,11.5-7.6
	c2.1-5.4,4.2-13.6,1-19.1c-6.7-1-7.6,3.9-12.4,4.8C91,32.4,90.2,28.1,87.8,25.5 M113.6,107.7c9.5-12.2-7.9-31.9-21-30.6
	c0.9,10.9,8.1,15.5,9.6,25.8C106.2,104.3,109,106.9,113.6,107.7 M76.3,102.9C77.9,90.7,68.4,79,61,89.5C62,98.3,67,108.2,76.3,102.9
	 M288,43.6h-4.3V31.9h4.3V43.6z M288,112.9h-4.3V54.6h4.3V112.9z M274.6,43.6h-4.3V31.9h4.3V43.6z M274.6,112.9h-4.3V54.6h4.3V112.9
	z M220.4,31.9v35.2h0.2c3-8.7,11.8-13.8,20.9-13.8c20.5,0,20.8,16.5,20.8,23.6v36.1h-4.3V76.1c0-6-0.7-19.1-16.6-19.1
	c-13.1,0-21,10.1-21,24.4v31.5h-4.3v-81H220.4z M169.2,93.5c0.7,10.8,8.7,17,19.3,17c7.6,0,18.5-2.3,18.5-12.4
	c0-9.9-10-11.3-20-13.4c-10.1-2-20.1-4.7-20.1-16.6c0-11.6,11.2-15,21.1-15c12.4,0,21.6,5.3,21.6,18.6h-4.3
	C205.2,61.3,197.8,57,188,57c-7.9,0-16.8,3-16.8,11.2c0,9.3,10,10.8,19.4,12.8c11.6,2.2,20.7,4.9,20.7,17.1
	c0,12.6-12.6,16.1-22.8,16.1c-13.3,0-23.3-7.1-23.6-20.8H169.2z M159.1,43.6h-4.3V31.9h4.3V43.6z M159.1,112.9h-4.3V54.6h4.3V112.9z
	"/>
</svg>
